<?xml version="1.0" encoding="UTF-8" standalone="no"?>
<!-- Created with Inkscape (http://www.inkscape.org/) -->

<svg
   version="1.1"
   id="svg132"
   width="755.90533"
   height="755.90533"
   viewBox="0 0 755.90533 755.90533"
   sodipodi:docname="Compositesystem - Copy.ai"
   xmlns:inkscape="http://www.inkscape.org/namespaces/inkscape"
   xmlns:sodipodi="http://sodipodi.sourceforge.net/DTD/sodipodi-0.dtd"
   xmlns="http://www.w3.org/2000/svg"
   xmlns:svg="http://www.w3.org/2000/svg">
  <defs
     id="defs136">
    <clipPath
       clipPathUnits="userSpaceOnUse"
       id="clipPath280">
      <path
         d="M 0,566.929 H 566.929 V 0 H 0 Z"
         id="path278" />
    </clipPath>
  </defs>
  <sodipodi:namedview
     id="namedview134"
     pagecolor="#000000"
     bordercolor="#000000"
     borderopacity="1"
     inkscape:showpageshadow="0"
     inkscape:pageopacity="1"
     inkscape:pagecheckerboard="0"
     inkscape:deskcolor="#d1d1d1"
     showgrid="false" />
  <g
     id="g270"
     inkscape:groupmode="layer"
     inkscape:label="Page 2"
     transform="matrix(1.3333333,0,0,-1.3333333,-9.0636515e-6,755.90533)">
    <g
       id="g274">
      <g
         id="g276"
         clip-path="url(#clipPath280)">
        <g
           id="g282"
           transform="translate(210.8467,235.8072)">
          <path
             d="m 0,0 v -1.798 c -1.199,-0.653 -2.583,-0.98 -4.152,-0.98 -1.274,0 -2.356,0.256 -3.244,0.768 -0.887,0.512 -1.59,1.217 -2.108,2.116 -0.517,0.9 -0.776,1.872 -0.776,2.917 0,1.662 0.592,3.059 1.777,4.193 1.185,1.133 2.647,1.699 4.384,1.699 1.198,0 2.53,-0.313 3.996,-0.939 V 6.219 C -1.458,6.981 -2.763,7.363 -4.037,7.363 -5.345,7.363 -6.431,6.95 -7.294,6.125 -8.156,5.3 -8.589,4.266 -8.589,3.023 c 0,-1.252 0.425,-2.282 1.276,-3.088 0.849,-0.806 1.936,-1.209 3.259,-1.209 1.384,0 2.735,0.424 4.054,1.274"
             style="fill:#ffffff;fill-opacity:1;fill-rule:nonzero;stroke:none"
             id="path284" />
        </g>
        <g
           id="g286"
           transform="translate(218.5225,243.1861)">
          <path
             d="m 0,0 c -1.306,0 -2.379,-0.409 -3.22,-1.226 -0.841,-0.817 -1.261,-1.86 -1.261,-3.129 0,-1.231 0.421,-2.255 1.265,-3.073 0.844,-0.817 1.9,-1.225 3.167,-1.225 1.275,0 2.337,0.416 3.189,1.25 0.851,0.833 1.277,1.871 1.277,3.113 0,1.209 -0.426,2.227 -1.277,3.053 C 2.288,-0.412 1.241,0 0,0 m -0.064,1.553 c 1.763,0 3.231,-0.559 4.405,-1.676 1.173,-1.116 1.76,-2.517 1.76,-4.2 0,-1.683 -0.592,-3.076 -1.777,-4.179 -1.183,-1.103 -2.677,-1.655 -4.478,-1.655 -1.721,0 -3.154,0.552 -4.3,1.655 -1.147,1.103 -1.719,2.485 -1.719,4.147 0,1.705 0.577,3.116 1.732,4.232 1.153,1.117 2.612,1.676 4.377,1.676"
             style="fill:#ffffff;fill-opacity:1;fill-rule:nonzero;stroke:none"
             id="path288" />
        </g>
        <g
           id="g290"
           transform="translate(235.7109,244.5748)">
          <path
             d="m 0,0 h 1.528 v -11.415 h -1.642 v 8.883 l -3.51,-4.413 h -0.302 l -3.551,4.413 v -8.883 H -9.111 V 0 h 1.548 l 3.792,-4.687 z"
             style="fill:#ffffff;fill-opacity:1;fill-rule:nonzero;stroke:none"
             id="path292" />
        </g>
        <g
           id="g294"
           transform="translate(242.9424,243.1373)">
          <path
             d="m 0,0 h -1.69 v -3.571 h 1.789 c 0.665,0 1.176,0.156 1.536,0.469 0.359,0.314 0.539,0.762 0.539,1.345 C 2.174,-0.586 1.45,0 0,0 M -3.333,-9.978 V 1.454 h 3.619 c 1.09,0 1.959,-0.294 2.608,-0.882 0.648,-0.589 0.972,-1.379 0.972,-2.37 0,-0.665 -0.167,-1.253 -0.499,-1.765 C 3.035,-4.075 2.58,-4.447 2.003,-4.679 1.425,-4.91 0.598,-5.025 -0.481,-5.025 H -1.69 v -4.953 z"
             style="fill:#ffffff;fill-opacity:1;fill-rule:nonzero;stroke:none"
             id="path296" />
        </g>
        <g
           id="g298"
           transform="translate(253.8965,243.1861)">
          <path
             d="m 0,0 c -1.307,0 -2.38,-0.409 -3.221,-1.226 -0.841,-0.817 -1.261,-1.86 -1.261,-3.129 0,-1.231 0.421,-2.255 1.265,-3.073 0.844,-0.817 1.9,-1.225 3.168,-1.225 1.274,0 2.336,0.416 3.188,1.25 0.851,0.833 1.277,1.871 1.277,3.113 0,1.209 -0.426,2.227 -1.277,3.053 C 2.287,-0.412 1.24,0 0,0 m -0.065,1.553 c 1.763,0 3.232,-0.559 4.405,-1.676 1.173,-1.116 1.76,-2.517 1.76,-4.2 0,-1.683 -0.592,-3.076 -1.777,-4.179 -1.183,-1.103 -2.677,-1.655 -4.478,-1.655 -1.721,0 -3.154,0.552 -4.3,1.655 -1.146,1.103 -1.719,2.485 -1.719,4.147 0,1.705 0.577,3.116 1.732,4.232 1.154,1.117 2.613,1.676 4.377,1.676"
             style="fill:#ffffff;fill-opacity:1;fill-rule:nonzero;stroke:none"
             id="path300" />
        </g>
        <g
           id="g302"
           transform="translate(264.834,237.943)">
          <path
             d="m 0,0 -1.242,0.754 c -0.779,0.475 -1.333,0.944 -1.662,1.404 -0.33,0.461 -0.495,0.99 -0.495,1.59 0,0.898 0.312,1.629 0.935,2.189 0.624,0.562 1.435,0.842 2.432,0.842 0.953,0 1.827,-0.267 2.622,-0.802 V 4.121 C 1.768,4.913 0.883,5.309 -0.065,5.309 -0.599,5.309 -1.038,5.186 -1.381,4.938 -1.725,4.691 -1.896,4.375 -1.896,3.99 c 0,-0.342 0.126,-0.662 0.379,-0.961 0.253,-0.298 0.66,-0.612 1.22,-0.94 L 0.951,1.351 C 2.344,0.519 3.04,-0.54 3.04,-1.825 3.04,-2.74 2.733,-3.484 2.12,-4.056 1.508,-4.628 0.711,-4.914 -0.27,-4.914 c -1.127,0 -2.155,0.347 -3.081,1.04 v 2.075 c 0.883,-1.117 1.905,-1.677 3.065,-1.677 0.513,0 0.938,0.143 1.279,0.427 0.34,0.285 0.511,0.643 0.511,1.071 C 1.504,-1.282 1.003,-0.624 0,0"
             style="fill:#ffffff;fill-opacity:1;fill-rule:nonzero;stroke:none"
             id="path304" />
        </g>
        <path
           d="m 269.687,244.575 h 1.635 V 233.16 h -1.635 z"
           style="fill:#ffffff;fill-opacity:1;fill-rule:nonzero;stroke:none"
           id="path306" />
        <g
           id="g308"
           transform="translate(272.8828,244.5914)">
          <path
             d="M 0,0 H 9.536 V -1.454 H 5.557 v -9.978 H 3.914 v 9.978 H 0 Z"
             style="fill:#ffffff;fill-opacity:1;fill-rule:nonzero;stroke:none"
             id="path310" />
        </g>
        <g
           id="g312"
           transform="translate(283.9629,244.5748)">
          <path
             d="M 0,0 H 6.472 V -1.454 H 1.634 V -4.936 H 6.309 V -6.397 H 1.634 v -3.547 h 4.993 v -1.454 H 0 Z"
             style="fill:#ffffff;fill-opacity:1;fill-rule:nonzero;stroke:none"
             id="path314" />
        </g>
        <g
           id="g316"
           transform="translate(300.3105,244.776)">
          <path
             d="m 0,0 c 1.116,0 2.192,-0.279 3.226,-0.837 v -1.971 c -1.188,0.717 -2.241,1.076 -3.161,1.076 -0.558,0 -0.995,-0.108 -1.309,-0.325 -0.315,-0.215 -0.472,-0.505 -0.472,-0.865 0,-0.432 0.292,-0.832 0.879,-1.199 0.164,-0.109 0.796,-0.416 1.897,-0.92 0.94,-0.443 1.619,-0.936 2.035,-1.478 0.416,-0.542 0.624,-1.193 0.624,-1.953 0,-0.985 -0.355,-1.78 -1.064,-2.385 -0.709,-0.604 -1.627,-0.907 -2.754,-0.907 -0.733,0 -1.364,0.08 -1.892,0.243 -0.528,0.161 -1.12,0.438 -1.778,0.833 v 2.183 c 1.227,-1.018 2.381,-1.526 3.465,-1.526 0.541,0 0.98,0.117 1.314,0.352 0.334,0.236 0.5,0.547 0.5,0.936 0,0.531 -0.289,0.963 -0.869,1.298 -0.483,0.261 -1.104,0.577 -1.864,0.943 -0.903,0.41 -1.578,0.89 -2.024,1.437 -0.445,0.547 -0.669,1.182 -0.669,1.905 0,0.963 0.358,1.73 1.075,2.303 C -2.124,-0.286 -1.177,0 0,0"
             style="fill:#ffffff;fill-opacity:1;fill-rule:nonzero;stroke:none"
             id="path318" />
        </g>
        <g
           id="g320"
           transform="translate(306.7881,244.6285)">
          <path
             d="M 0,0 2.774,-3.834 5.582,0 H 8.217 L 3.883,-5.788 v -5.681 H 1.666 v 5.698 L -2.692,0 Z"
             style="fill:#ffffff;fill-opacity:1;fill-rule:nonzero;stroke:none"
             id="path322" />
        </g>
        <g
           id="g324"
           transform="translate(319.167,244.776)">
          <path
             d="m 0,0 c 1.116,0 2.192,-0.279 3.226,-0.837 v -1.971 c -1.187,0.717 -2.241,1.076 -3.16,1.076 -0.559,0 -0.995,-0.108 -1.31,-0.325 -0.315,-0.215 -0.472,-0.505 -0.472,-0.865 0,-0.432 0.293,-0.832 0.879,-1.199 0.164,-0.109 0.796,-0.416 1.897,-0.92 0.941,-0.443 1.62,-0.936 2.035,-1.478 0.416,-0.542 0.624,-1.193 0.624,-1.953 0,-0.985 -0.355,-1.78 -1.063,-2.385 -0.71,-0.604 -1.627,-0.907 -2.755,-0.907 -0.733,0 -1.364,0.08 -1.892,0.243 -0.528,0.161 -1.12,0.438 -1.778,0.833 v 2.183 c 1.227,-1.018 2.382,-1.526 3.465,-1.526 0.542,0 0.98,0.117 1.314,0.352 0.334,0.236 0.501,0.547 0.501,0.936 0,0.531 -0.29,0.963 -0.87,1.298 -0.483,0.261 -1.103,0.577 -1.864,0.943 -0.903,0.41 -1.578,0.89 -2.024,1.437 -0.445,0.547 -0.669,1.182 -0.669,1.905 0,0.963 0.358,1.73 1.076,2.303 C -2.123,-0.286 -1.177,0 0,0"
             style="fill:#ffffff;fill-opacity:1;fill-rule:nonzero;stroke:none"
             id="path326" />
        </g>
        <g
           id="g328"
           transform="translate(334.002,244.6285)">
          <path
             d="m 0,0 v -1.732 h -4.072 v -9.737 h -2.216 v 9.737 H -10.36 V 0 Z"
             style="fill:#ffffff;fill-opacity:1;fill-rule:nonzero;stroke:none"
             id="path330" />
        </g>
        <g
           id="g332"
           transform="translate(343.0977,244.6285)">
          <path
             d="m 0,0 v -1.732 h -5.196 v -3.013 h 4.974 v -1.733 h -4.974 v -3.258 h 5.311 v -1.733 H -7.413 V 0 Z"
             style="fill:#ffffff;fill-opacity:1;fill-rule:nonzero;stroke:none"
             id="path334" />
        </g>
        <g
           id="g336"
           transform="translate(347.2764,244.6285)">
          <path
             d="M 0,0 3.768,-4.523 7.536,0 H 9.515 V -11.469 H 7.298 v 8.054 H 7.232 L 3.916,-7.454 H 3.604 L 0.287,-3.415 H 0.222 v -8.054 H -1.995 V 0 Z"
             style="fill:#ffffff;fill-opacity:1;fill-rule:nonzero;stroke:none"
             id="path338" />
        </g>
        <g
           id="g340"
           transform="translate(362.6436,244.776)">
          <path
             d="m 0,0 c 1.117,0 2.192,-0.279 3.227,-0.837 v -1.971 c -1.188,0.717 -2.242,1.076 -3.161,1.076 -0.558,0 -0.995,-0.108 -1.309,-0.325 -0.315,-0.215 -0.472,-0.505 -0.472,-0.865 0,-0.432 0.292,-0.832 0.878,-1.199 0.164,-0.109 0.796,-0.416 1.897,-0.92 0.941,-0.443 1.62,-0.936 2.035,-1.478 0.416,-0.542 0.624,-1.193 0.624,-1.953 0,-0.985 -0.355,-1.78 -1.063,-2.385 -0.709,-0.604 -1.627,-0.907 -2.754,-0.907 -0.734,0 -1.364,0.08 -1.892,0.243 -0.529,0.161 -1.12,0.438 -1.778,0.833 v 2.183 c 1.226,-1.018 2.381,-1.526 3.464,-1.526 0.542,0 0.981,0.117 1.314,0.352 0.334,0.236 0.501,0.547 0.501,0.936 0,0.531 -0.29,0.963 -0.87,1.298 -0.482,0.261 -1.103,0.577 -1.864,0.943 -0.903,0.41 -1.578,0.89 -2.023,1.437 -0.446,0.547 -0.67,1.182 -0.67,1.905 0,0.963 0.358,1.73 1.076,2.303 C -2.123,-0.286 -1.176,0 0,0"
             style="fill:#ffffff;fill-opacity:1;fill-rule:nonzero;stroke:none"
             id="path342" />
        </g>
        <g
           id="g344"
           transform="translate(275.8418,286.0309)">
          <path
             d="m 0,0 -0.27,14.069 c -0.202,0.031 -0.39,0.099 -0.569,0.186 L -8.981,9.741 C -9.022,9.347 -9.177,8.986 -9.416,8.692 L -1.22,-0.472 C -0.866,-0.223 -0.451,-0.062 0,0"
             style="fill:#ffffff;fill-opacity:1;fill-rule:nonzero;stroke:none"
             id="path346" />
        </g>
        <g
           id="g348"
           transform="translate(261.4414,303.4117)">
          <path
             d="m 0,0 2.832,-5.549 c 0.161,0.052 0.329,0.091 0.506,0.101 0.35,0.019 0.68,-0.062 0.974,-0.206 l 8.139,4.512 c 0.088,0.873 0.739,1.586 1.605,1.75 l -0.359,18.737 c -0.654,0.024 -1.28,0.159 -1.863,0.387 L 0.667,2.383 C 0.748,2.191 0.809,1.988 0.826,1.769 0.883,1.049 0.546,0.394 0,0"
             style="fill:#ffffff;fill-opacity:1;fill-rule:nonzero;stroke:none"
             id="path350" />
        </g>
        <g
           id="g352"
           transform="translate(257.6826,311.5294)">
          <path
             d="m 0,0 c -0.292,-0.015 -0.578,0.002 -0.856,0.047 -2.779,-4.907 -4.018,-10.358 -3.701,-16.359 0.075,-1.402 0.237,-2.763 0.471,-4.088 0.359,0.074 0.726,0.131 1.103,0.151 0.405,0.021 0.801,10e-4 1.191,-0.042 l 2.896,12.476 c -0.273,0.312 -0.457,0.706 -0.492,1.151 -0.067,0.853 0.416,1.618 1.15,1.959 L 0.502,0.062 C 0.338,0.032 0.171,0.009 0,0"
             style="fill:#ffffff;fill-opacity:1;fill-rule:nonzero;stroke:none"
             id="path354" />
        </g>
        <g
           id="g356"
           transform="translate(292.3359,276.9019)">
          <path
             d="m 0,0 c -0.275,-0.707 -0.941,-1.227 -1.749,-1.269 -0.078,-0.003 -0.153,0.006 -0.23,0.011 L -8.79,-8.761 c 0.379,-0.552 0.649,-1.187 0.777,-1.877 0.319,0.009 0.635,0.013 0.956,0.03 6.539,0.345 12.277,2.487 17.217,6.412 -0.372,0.723 -0.604,1.533 -0.65,2.398 -0.012,0.231 -0.008,0.458 0.006,0.683 z"
             style="fill:#ffffff;fill-opacity:1;fill-rule:nonzero;stroke:none"
             id="path358" />
        </g>
        <g
           id="g360"
           transform="translate(282.0527,327.3233)">
          <path
             d="M 0,0 C -0.376,-0.02 -0.746,-0.052 -1.117,-0.084 -1.647,-2.492 -3.7,-4.357 -6.266,-4.552 l 0.358,-18.729 c 0.213,-0.03 0.413,-0.099 0.599,-0.192 l 23.08,12.792 c -0.211,0.599 -0.345,1.235 -0.38,1.901 -0.075,1.409 0.285,2.741 0.962,3.866 C 12.885,-1.28 6.767,0.358 0,0"
             style="fill:#ffffff;fill-opacity:1;fill-rule:nonzero;stroke:none"
             id="path362" />
        </g>
        <g
           id="g364"
           transform="translate(280.4248,331.1114)">
          <path
             d="m 0,0 c 0.471,0.042 0.943,0.082 1.423,0.107 7.973,0.421 15.139,-1.636 21.499,-6.155 0.774,0.365 1.63,0.592 2.538,0.64 0.34,0.018 0.673,0.003 1.002,-0.028 C 21.359,-1.347 15.13,1.47 8.185,2.442 4.573,2.948 1.014,2.913 -2.423,2.417 -1.395,1.875 -0.541,1.038 0,0"
             style="fill:#ffffff;fill-opacity:1;fill-rule:nonzero;stroke:none"
             id="path366" />
        </g>
        <g
           id="g368"
           transform="translate(258.8135,311.7555)">
          <path
             d="m 0,0 1.256,-4.756 c 0.018,0.002 0.035,0.008 0.054,0.009 0.021,0.002 0.042,-0.002 0.062,-0.001 l 11.18,17.369 c -0.116,0.113 -0.228,0.23 -0.333,0.352 C 8.528,11.313 5.209,8.873 2.265,5.646 2.513,5.158 2.667,4.612 2.698,4.03 2.795,2.194 1.651,0.581 0,0"
             style="fill:#ffffff;fill-opacity:1;fill-rule:nonzero;stroke:none"
             id="path370" />
        </g>
        <g
           id="g372"
           transform="translate(262.9971,295.3609)">
          <path
             d="M 0,0 C -0.053,0.162 -0.093,0.33 -0.102,0.508 -0.139,1.199 0.182,1.825 0.697,2.21 L -2.05,7.604 -4.911,-4.72 c 0.34,-0.154 0.664,-0.335 0.973,-0.537 z"
             style="fill:#ffffff;fill-opacity:1;fill-rule:nonzero;stroke:none"
             id="path374" />
        </g>
        <g
           id="g376"
           transform="translate(250.0332,289.2511)">
          <path
             d="m 0,0 c -0.392,1.853 -0.648,3.771 -0.754,5.764 -0.369,6.972 1.125,13.296 4.468,18.975 -0.18,0.423 -0.295,0.882 -0.32,1.368 -0.119,2.233 1.595,4.139 3.829,4.256 0.196,0.011 0.388,0.002 0.579,-0.015 0.069,0.08 0.134,0.161 0.205,0.24 3.404,3.802 7.273,6.647 11.597,8.554 -0.017,1.216 0.353,2.352 0.993,3.293 C 7.906,37.845 -1.888,26.567 -3.891,12.272 v 0 C -4.738,6.223 -4.086,0.312 -2.234,-5.098 -2.191,-3.109 -1.352,-1.3 0,0"
             style="fill:#ffffff;fill-opacity:1;fill-rule:nonzero;stroke:none"
             id="path378" />
        </g>
        <g
           id="g380"
           transform="translate(308.0996,269.4791)">
          <path
             d="m 0,0 c -0.998,-0.053 -1.95,0.146 -2.799,0.538 -5.652,-4.642 -12.256,-7.171 -19.818,-7.571 -0.695,-0.036 -1.382,-0.049 -2.064,-0.05 -0.845,-1.121 -2.162,-1.877 -3.674,-1.957 -2.117,-0.111 -3.987,1.132 -4.781,2.97 -5.249,1.317 -10.035,3.911 -14.353,7.796 -1.912,1.719 -3.574,3.561 -5.005,5.515 -0.046,-0.003 -0.09,-0.011 -0.136,-0.013 -1.992,-0.106 -3.838,0.6 -5.222,1.826 5.482,-10.201 15.578,-17.746 27.925,-19.477 h 0.001 C -17.616,-12.146 -5.869,-7.701 2.202,0.553 1.529,0.238 0.787,0.042 0,0"
             style="fill:#ffffff;fill-opacity:1;fill-rule:nonzero;stroke:none"
             id="path382" />
        </g>
        <g
           id="g384"
           transform="translate(313.0254,319.4518)">
          <path
             d="M 0,0 C 0.005,-0.063 0.017,-0.125 0.02,-0.189 0.219,-3.945 -2.666,-7.151 -6.422,-7.35 -7,-7.38 -7.562,-7.33 -8.106,-7.222 l -12.771,-33.53 c 0.183,-0.283 0.304,-0.611 0.323,-0.972 0.004,-0.067 -0.007,-0.131 -0.009,-0.197 l 9.465,-1.103 c 0.459,2.678 2.716,4.781 5.544,4.93 3.28,0.173 6.079,-2.345 6.253,-5.626 0.036,-0.691 -0.053,-1.36 -0.238,-1.989 3.697,4.922 6.239,10.817 7.153,17.344 C 9.087,-17.853 6.055,-7.753 0,0"
             style="fill:#ffffff;fill-opacity:1;fill-rule:nonzero;stroke:none"
             id="path386" />
        </g>
        <g
           id="g388"
           transform="translate(279.2236,270.2809)">
          <path
             d="M 0,0 C 0.956,0.05 1.859,-0.18 2.639,-0.61 L 9.352,6.781 C 9.309,6.927 9.277,7.078 9.269,7.236 9.262,7.362 9.271,7.484 9.286,7.604 l -9.869,4.057 c -0.345,-0.62 -0.918,-1.093 -1.615,-1.306 L -0.302,-0.031 C -0.201,-0.021 -0.102,-0.006 0,0"
             style="fill:#ffffff;fill-opacity:1;fill-rule:nonzero;stroke:none"
             id="path390" />
        </g>
        <g
           id="g392"
           transform="translate(263.2207,274.0816)">
          <path
             d="m 0,0 c 3.581,-3.213 7.51,-5.434 11.785,-6.671 0.613,1.336 1.808,2.359 3.278,2.727 L 13.17,6.434 C 13.16,6.433 13.151,6.43 13.142,6.429 11.607,6.348 10.298,7.525 10.217,9.06 c -0.04,0.759 0.23,1.462 0.697,1.99 L 2.727,20.217 C 2.446,20.039 2.124,19.921 1.77,19.903 1.709,19.9 1.651,19.909 1.593,19.911 L -2.466,14.493 C -1.531,13.339 -0.934,11.894 -0.85,10.297 -0.715,7.755 -1.9,5.45 -3.806,4.042 -2.684,2.624 -1.42,1.274 0,0"
             style="fill:#ffffff;fill-opacity:1;fill-rule:nonzero;stroke:none"
             id="path394" />
        </g>
        <g
           id="g396"
           transform="translate(300.9277,314.6563)">
          <path
             d="m 0,0 -23.085,-12.797 c -0.093,-0.874 -0.753,-1.584 -1.624,-1.74 l 0.269,-14.073 c 1.345,-0.133 2.431,-1.22 2.505,-2.611 0.016,-0.311 -0.031,-0.607 -0.11,-0.891 l 9.823,-4.038 c 0.262,0.525 0.744,0.921 1.338,1.055 L 1.865,-1.622 C 1.149,-1.2 0.519,-0.648 0,0"
             style="fill:#ffffff;fill-opacity:1;fill-rule:nonzero;stroke:none"
             id="path398" />
        </g>
      </g>
    </g>
  </g>
</svg>
